<?xml version="1.0" ?><svg enable-background="new 0 0 32 32" id="Outline" version="1.1" viewBox="0 0 32 32" xml:space="preserve" xmlns="http://www.w3.org/2000/svg" xmlns:xlink="http://www.w3.org/1999/xlink"><title/><desc/><g><path d="M22,10H0V8h22c1.103,0,2-0.897,2-2s-0.897-2-2-2s-2,0.897-2,2h-2c0-2.206,1.794-4,4-4s4,1.794,4,4S24.206,10,22,10z"/><path d="M29,18h-1v-2h1c0.552,0,1-0.449,1-1s-0.448-1-1-1H18v-2h11c1.654,0,3,1.346,3,3S30.654,18,29,18z"/><path d="M23,22h-1v-2h1c0.552,0,1-0.449,1-1s-0.448-1-1-1H0v-2h23c1.654,0,3,1.346,3,3S24.654,22,23,22z"/><path d="M16,28c-2.206,0-4-1.794-4-4h2c0,1.103,0.897,2,2,2s2-0.897,2-2s-0.897-2-2-2H4v-2h12c2.206,0,4,1.794,4,4S18.206,28,16,28   z"/><rect height="2" width="2" x="2" y="12"/><rect height="2" width="10" x="6" y="12"/><rect height="2" width="2" y="20"/></g></svg>
